<mxfile host="Electron" modified="2023-06-04T07:51:17.606Z" agent="Mozilla/5.0 (Windows NT 10.0; Win64; x64) AppleWebKit/537.36 (KHTML, like Gecko) draw.io/21.2.1 Chrome/112.0.5615.87 Electron/24.1.2 Safari/537.36" etag="JWYWMs0VXR_bsb1GOzOh" version="21.2.1" type="device">
  <diagram name="第 1 页" id="wJYdprHoZsIcCNiG0OBX">
    <mxGraphModel dx="911" dy="592" grid="1" gridSize="10" guides="1" tooltips="1" connect="1" arrows="1" fold="1" page="1" pageScale="1" pageWidth="827" pageHeight="1169" math="0" shadow="0">
      <root>
        <mxCell id="0" />
        <mxCell id="1" parent="0" />
        <mxCell id="I0TVb54DewYzxO77dr6m-1" value="" style="rounded=0;whiteSpace=wrap;html=1;fillColor=#1ba1e2;strokeColor=#006EAF;sketch=1;curveFitting=1;jiggle=2;glass=0;shadow=1;fontColor=#ffffff;strokeWidth=1;" vertex="1" parent="1">
          <mxGeometry x="120" y="120" width="330" height="400" as="geometry" />
        </mxCell>
        <mxCell id="I0TVb54DewYzxO77dr6m-2" value="&lt;font style=&quot;font-size: 20px;&quot;&gt;&lt;b&gt;JavaScript主线程&lt;/b&gt;&lt;/font&gt;" style="text;html=1;strokeColor=none;fillColor=none;align=center;verticalAlign=middle;whiteSpace=wrap;rounded=0;" vertex="1" parent="1">
          <mxGeometry x="140" y="130" width="290" height="30" as="geometry" />
        </mxCell>
        <mxCell id="I0TVb54DewYzxO77dr6m-3" value="" style="rounded=0;whiteSpace=wrap;html=1;strokeWidth=1;sketch=1;curveFitting=1;jiggle=2;shadow=1;" vertex="1" parent="1">
          <mxGeometry x="136" y="170" width="140" height="310" as="geometry" />
        </mxCell>
        <mxCell id="I0TVb54DewYzxO77dr6m-4" value="" style="rounded=0;whiteSpace=wrap;html=1;strokeWidth=1;sketch=1;curveFitting=1;jiggle=2;shadow=1;" vertex="1" parent="1">
          <mxGeometry x="294" y="170" width="140" height="310" as="geometry" />
        </mxCell>
        <mxCell id="I0TVb54DewYzxO77dr6m-5" value="&lt;b&gt;&lt;font style=&quot;font-size: 20px;&quot;&gt;堆&lt;/font&gt;&lt;/b&gt;" style="text;html=1;strokeColor=none;fillColor=none;align=center;verticalAlign=middle;whiteSpace=wrap;rounded=0;" vertex="1" parent="1">
          <mxGeometry x="171" y="180" width="70" height="30" as="geometry" />
        </mxCell>
        <mxCell id="I0TVb54DewYzxO77dr6m-6" value="&lt;b&gt;&lt;font style=&quot;font-size: 20px;&quot;&gt;栈&lt;/font&gt;&lt;/b&gt;" style="text;html=1;strokeColor=none;fillColor=none;align=center;verticalAlign=middle;whiteSpace=wrap;rounded=0;" vertex="1" parent="1">
          <mxGeometry x="330" y="180" width="70" height="30" as="geometry" />
        </mxCell>
        <mxCell id="I0TVb54DewYzxO77dr6m-7" value="" style="whiteSpace=wrap;html=1;aspect=fixed;fillColor=#f0a30a;fontColor=#000000;strokeColor=#BD7000;sketch=1;curveFitting=1;jiggle=2;shadow=0;" vertex="1" parent="1">
          <mxGeometry x="151" y="220" width="30" height="30" as="geometry" />
        </mxCell>
        <mxCell id="I0TVb54DewYzxO77dr6m-8" value="" style="whiteSpace=wrap;html=1;aspect=fixed;fillColor=#1ba1e2;fontColor=#ffffff;strokeColor=#006EAF;sketch=1;curveFitting=1;jiggle=2;shadow=0;" vertex="1" parent="1">
          <mxGeometry x="230" y="283" width="30" height="30" as="geometry" />
        </mxCell>
        <mxCell id="I0TVb54DewYzxO77dr6m-9" value="" style="whiteSpace=wrap;html=1;aspect=fixed;fillColor=#60a917;fontColor=#ffffff;strokeColor=#2D7600;sketch=1;curveFitting=1;jiggle=2;shadow=0;" vertex="1" parent="1">
          <mxGeometry x="177" y="347" width="30" height="30" as="geometry" />
        </mxCell>
        <mxCell id="I0TVb54DewYzxO77dr6m-10" value="" style="whiteSpace=wrap;html=1;aspect=fixed;fillColor=#d80073;fontColor=#ffffff;strokeColor=#A50040;sketch=1;curveFitting=1;jiggle=2;shadow=0;" vertex="1" parent="1">
          <mxGeometry x="204" y="410" width="30" height="30" as="geometry" />
        </mxCell>
        <mxCell id="I0TVb54DewYzxO77dr6m-14" value="&lt;b&gt;&lt;font color=&quot;#000000&quot; style=&quot;font-size: 18px;&quot;&gt;同步任务 1&lt;/font&gt;&lt;/b&gt;" style="rounded=1;whiteSpace=wrap;html=1;fillColor=#60a917;fontColor=#ffffff;strokeColor=#2D7600;sketch=1;curveFitting=1;jiggle=2;shadow=0;" vertex="1" parent="1">
          <mxGeometry x="305" y="220" width="120" height="40" as="geometry" />
        </mxCell>
        <mxCell id="I0TVb54DewYzxO77dr6m-29" style="edgeStyle=orthogonalEdgeStyle;rounded=0;orthogonalLoop=1;jettySize=auto;html=1;exitX=1;exitY=0.5;exitDx=0;exitDy=0;entryX=0;entryY=0.5;entryDx=0;entryDy=0;curved=1;strokeWidth=2;" edge="1" parent="1" source="I0TVb54DewYzxO77dr6m-15" target="I0TVb54DewYzxO77dr6m-20">
          <mxGeometry relative="1" as="geometry" />
        </mxCell>
        <mxCell id="I0TVb54DewYzxO77dr6m-15" value="&lt;b&gt;&lt;font color=&quot;#000000&quot; style=&quot;font-size: 18px;&quot;&gt;异步任务 A&lt;/font&gt;&lt;/b&gt;" style="rounded=1;whiteSpace=wrap;html=1;fillColor=#FFD966;fontColor=#000000;strokeColor=#FF8000;sketch=1;curveFitting=1;jiggle=2;shadow=0;" vertex="1" parent="1">
          <mxGeometry x="304" y="283" width="120" height="40" as="geometry" />
        </mxCell>
        <mxCell id="I0TVb54DewYzxO77dr6m-31" style="edgeStyle=orthogonalEdgeStyle;rounded=0;orthogonalLoop=1;jettySize=auto;html=1;entryX=0;entryY=0.5;entryDx=0;entryDy=0;curved=1;strokeWidth=2;" edge="1" parent="1" source="I0TVb54DewYzxO77dr6m-16" target="I0TVb54DewYzxO77dr6m-21">
          <mxGeometry relative="1" as="geometry" />
        </mxCell>
        <mxCell id="I0TVb54DewYzxO77dr6m-16" value="&lt;b&gt;&lt;font color=&quot;#000000&quot; style=&quot;font-size: 18px;&quot;&gt;异步任务 C&lt;/font&gt;&lt;/b&gt;" style="rounded=1;whiteSpace=wrap;html=1;fillColor=#FFD966;fontColor=#000000;strokeColor=#FF8000;sketch=1;curveFitting=1;jiggle=2;shadow=0;" vertex="1" parent="1">
          <mxGeometry x="304" y="347" width="120" height="40" as="geometry" />
        </mxCell>
        <mxCell id="I0TVb54DewYzxO77dr6m-17" value="&lt;b&gt;&lt;font color=&quot;#000000&quot; style=&quot;font-size: 18px;&quot;&gt;同步任务 2&lt;/font&gt;&lt;/b&gt;" style="rounded=1;whiteSpace=wrap;html=1;fillColor=#60a917;fontColor=#ffffff;strokeColor=#2D7600;sketch=1;curveFitting=1;jiggle=2;shadow=0;" vertex="1" parent="1">
          <mxGeometry x="305" y="410" width="120" height="40" as="geometry" />
        </mxCell>
        <mxCell id="I0TVb54DewYzxO77dr6m-18" value="" style="rounded=0;whiteSpace=wrap;html=1;fillColor=#33FFFF;fontColor=#000000;strokeColor=#0066CC;sketch=1;curveFitting=1;jiggle=2;shadow=1;" vertex="1" parent="1">
          <mxGeometry x="601" y="120" width="320" height="200" as="geometry" />
        </mxCell>
        <mxCell id="I0TVb54DewYzxO77dr6m-19" value="&lt;font style=&quot;font-size: 18px;&quot;&gt;&lt;b&gt;宿主环境&lt;br&gt;（浏览器或Node.js）&lt;br&gt;&lt;/b&gt;&lt;/font&gt;" style="text;html=1;strokeColor=none;fillColor=none;align=center;verticalAlign=middle;whiteSpace=wrap;rounded=0;" vertex="1" parent="1">
          <mxGeometry x="611" y="130" width="290" height="50" as="geometry" />
        </mxCell>
        <mxCell id="I0TVb54DewYzxO77dr6m-20" value="&lt;b style=&quot;&quot;&gt;&lt;font style=&quot;font-size: 16px;&quot;&gt;fs.readFile(&#39;路径&#39;, &#39;utf-8&#39;, cbA)&lt;/font&gt;&lt;/b&gt;" style="rounded=1;whiteSpace=wrap;html=1;fillColor=#FFD966;fontColor=#000000;strokeColor=#FF8000;sketch=1;curveFitting=1;jiggle=2;shadow=0;" vertex="1" parent="1">
          <mxGeometry x="621" y="202.5" width="280" height="35" as="geometry" />
        </mxCell>
        <mxCell id="I0TVb54DewYzxO77dr6m-21" value="&lt;b style=&quot;&quot;&gt;&lt;font style=&quot;font-size: 16px;&quot;&gt;setTimeout(cbC, 0)&lt;/font&gt;&lt;/b&gt;" style="rounded=1;whiteSpace=wrap;html=1;fillColor=#FFD966;fontColor=#000000;strokeColor=#FF8000;sketch=1;curveFitting=1;jiggle=2;shadow=0;" vertex="1" parent="1">
          <mxGeometry x="621" y="260" width="280" height="35" as="geometry" />
        </mxCell>
        <mxCell id="I0TVb54DewYzxO77dr6m-22" value="" style="rounded=1;whiteSpace=wrap;html=1;fillColor=#FA8541;fontColor=#000000;strokeColor=#000000;shadow=1;sketch=1;curveFitting=1;jiggle=2;" vertex="1" parent="1">
          <mxGeometry x="390" y="602" width="450" height="60" as="geometry" />
        </mxCell>
        <mxCell id="I0TVb54DewYzxO77dr6m-23" value="&lt;b&gt;&lt;font style=&quot;font-size: 16px;&quot;&gt;cbC&lt;/font&gt;&lt;/b&gt;" style="whiteSpace=wrap;html=1;aspect=fixed;fillColor=none;fontColor=#000000;strokeColor=#FF0000;sketch=1;curveFitting=1;jiggle=2;shadow=0;strokeWidth=2;" vertex="1" parent="1">
          <mxGeometry x="414" y="612" width="40" height="40" as="geometry" />
        </mxCell>
        <mxCell id="I0TVb54DewYzxO77dr6m-24" value="&lt;b&gt;&lt;font style=&quot;font-size: 16px;&quot;&gt;cbA&lt;/font&gt;&lt;/b&gt;" style="whiteSpace=wrap;html=1;aspect=fixed;fillColor=none;fontColor=#000000;strokeColor=#FF0000;sketch=1;curveFitting=1;jiggle=2;shadow=0;strokeWidth=2;" vertex="1" parent="1">
          <mxGeometry x="500" y="612" width="40" height="40" as="geometry" />
        </mxCell>
        <mxCell id="I0TVb54DewYzxO77dr6m-25" value="" style="shape=flexArrow;endArrow=classic;html=1;rounded=0;width=28;endSize=13.36;endWidth=37;fillColor=#FA8541;sketch=1;curveFitting=1;jiggle=2;shadow=1;strokeColor=#FA8541;" edge="1" parent="1">
          <mxGeometry width="50" height="50" relative="1" as="geometry">
            <mxPoint x="760.5" y="337" as="sourcePoint" />
            <mxPoint x="761" y="585" as="targetPoint" />
          </mxGeometry>
        </mxCell>
        <mxCell id="I0TVb54DewYzxO77dr6m-26" value="&lt;font style=&quot;font-size: 18px;&quot;&gt;&lt;b&gt;callback queue&lt;br&gt;任务队列&lt;br&gt;&lt;/b&gt;&lt;/font&gt;" style="text;html=1;strokeColor=none;fillColor=none;align=center;verticalAlign=middle;whiteSpace=wrap;rounded=0;" vertex="1" parent="1">
          <mxGeometry x="480" y="535" width="290" height="50" as="geometry" />
        </mxCell>
        <mxCell id="I0TVb54DewYzxO77dr6m-27" value="&lt;font style=&quot;font-size: 18px;&quot;&gt;&lt;b&gt;EventLoop&lt;br&gt;&lt;/b&gt;&lt;/font&gt;" style="text;html=1;strokeColor=none;fillColor=none;align=center;verticalAlign=middle;whiteSpace=wrap;rounded=0;" vertex="1" parent="1">
          <mxGeometry x="328" y="535" width="120" height="50" as="geometry" />
        </mxCell>
        <mxCell id="I0TVb54DewYzxO77dr6m-28" value="" style="sketch=0;pointerEvents=1;shadow=0;dashed=0;html=1;strokeColor=none;fillColor=#005F4B;labelPosition=center;verticalLabelPosition=bottom;verticalAlign=top;align=center;outlineConnect=0;shape=mxgraph.veeam2.restore;rotation=-90;flipH=1;" vertex="1" parent="1">
          <mxGeometry x="443" y="546" width="28.000000000000004" height="28.000000000000004" as="geometry" />
        </mxCell>
        <mxCell id="I0TVb54DewYzxO77dr6m-32" value="&lt;font style=&quot;&quot;&gt;&lt;b style=&quot;&quot;&gt;&lt;font style=&quot;font-size: 16px;&quot;&gt;委托给宿主环境&lt;/font&gt;&lt;br&gt;&lt;/b&gt;&lt;/font&gt;" style="text;html=1;strokeColor=none;fillColor=none;align=center;verticalAlign=middle;whiteSpace=wrap;rounded=0;" vertex="1" parent="1">
          <mxGeometry x="458" y="180" width="140" height="50" as="geometry" />
        </mxCell>
      </root>
    </mxGraphModel>
  </diagram>
</mxfile>
